<?xml version="1.0" encoding="UTF-8"?><svg id="_이어_2" xmlns="http://www.w3.org/2000/svg" viewBox="0 0 316.34 345.32"><defs><style>.cls-1{fill:#231815;}</style></defs><g id="_이어_2-2"><path class="cls-1" d="M.23,337.26s17.52-25.9,20.06-29.59,60.19-80.51,99.56-124.06,84.06-87.37,102.86-103.75c18.79-16.38,44.57-38.35,48-42.03s.63,10.03-1.4,12.44-46.48,38.86-70.86,64.63-90.41,91.94-123.05,134.86S5.31,340.44,4.04,343.36s-3.3,2.29-3.81,0,0-6.1,0-6.1Z"/><path class="cls-1" d="M286.45,24.5s-69.33,29.97-107.05,37.84c0,0-.38-7.49,3.43-8.89S288.73,14.97,300.29,7.48C311.84,0,313.11-.9,315.53,.63s-1.14,11.43-2.92,12.7-11.81,4.19-13.08,5.59c0,0-16.89,19.3-23.11,43.43s-7.62,37.84-7.49,40.38-3.56,8.76-4.95,8.25,3.1-34.16,8.34-50.03,13.75-34.54,14.13-36.44Z"/></g></svg>